<svg width="16" height="16" viewBox="0 0 16 16" fill="none" xmlns="http://www.w3.org/2000/svg">
<path d="M15.9971 9.16399C15.9606 9.36835 15.7301 9.54099 15.3314 9.71012C15.0315 9.84048 14.6364 9.96732 14.1901 10.1083C12.7709 10.5311 11.4723 11.056 10.3457 12.0391C9.39101 12.8213 8.56798 14.0122 7.89493 14.9212C7.65717 15.2348 7.40844 15.5589 7.10849 15.8055C6.75733 16.098 6.4391 16.0663 6.19402 15.6717C6.0916 15.5131 6.00747 15.3334 5.93065 15.1467C5.55755 14.2059 5.33076 13.1947 4.86987 12.1589C4.31753 10.8975 3.50182 9.74887 2.41177 8.86098C2.06793 8.57207 1.70946 8.30781 1.38391 8.0647C0.915703 7.69122 -0.0390037 7.10634 0.00123295 6.65183C0.0268381 6.45452 0.253627 6.29245 0.648677 6.13037C0.948623 6.00705 1.34733 5.88374 1.79725 5.74632C2.21059 5.61948 2.67148 5.47855 3.11775 5.31647C4.47848 4.84082 5.64534 4.01987 6.56712 2.95582C7.33162 2.09611 7.84738 1.16947 8.58993 0.394324C9.57756 -0.630976 9.96529 0.574016 10.2689 1.39144C10.6237 2.43436 10.9968 3.76619 11.6443 4.7633C11.9223 5.2143 12.2405 5.63005 12.6063 6.02115C13.1696 6.63774 13.9377 7.205 14.6071 7.69123C15.0936 8.07527 16.0593 8.6672 15.9971 9.16047V9.16399ZM10.4445 8.38885C10.4701 8.14222 10.2872 7.90615 10.1189 7.69123C9.80801 7.32127 9.47148 6.9337 9.23738 6.50737C8.96669 6.0599 8.85696 5.63358 8.53872 5.28476C8.2973 5.03108 7.99735 5.24248 7.79251 5.4257C7.46696 5.72166 7.04996 6.1797 6.64028 6.46157C6.45739 6.59546 6.25986 6.71877 6.066 6.83152C5.76239 7.02178 5.2576 7.24376 5.1881 7.58552C5.14055 7.93081 5.5356 8.2902 5.75873 8.56502C5.9526 8.78347 6.1355 9.01601 6.29278 9.26265C6.5342 9.61851 6.73905 10.1083 6.92194 10.4218C7.0902 10.7178 7.30967 10.9785 7.67546 10.7213C8.05222 10.4571 8.38509 10.0378 8.75819 9.74535C8.88256 9.64317 9.01425 9.54452 9.14959 9.45291C9.5483 9.14638 10.3786 8.82927 10.4445 8.38885Z" fill="white"/>
</svg>
