<svg width="108" height="26" viewBox="0 0 108 26" fill="none" xmlns="http://www.w3.org/2000/svg">
<path d="M24.9955 14.3187C24.9384 14.638 24.5783 14.9078 23.9553 15.1721C23.4867 15.3758 22.8694 15.5739 22.1721 15.7941C19.9545 16.4548 17.9255 17.2751 16.1652 18.811C14.6734 20.0332 13.3875 21.894 12.3358 23.3143C11.9643 23.8043 11.5757 24.3108 11.107 24.6962C10.5583 25.1531 10.0611 25.1036 9.67816 24.487C9.51813 24.2392 9.38667 23.9585 9.26665 23.6667C8.68367 22.1968 8.32932 20.6168 7.60917 18.9982C6.74614 17.0273 5.4716 15.2326 3.7684 13.8453C3.23115 13.3939 2.67103 12.981 2.16236 12.6011C1.43079 12.0175 -0.0609433 11.1037 0.00192648 10.3935C0.0419345 10.0852 0.396291 9.83195 1.01356 9.5787C1.48222 9.38602 2.10521 9.19334 2.80821 8.97863C3.45405 8.78044 4.17419 8.56023 4.87148 8.30699C6.99762 7.56378 8.82084 6.28105 10.2611 4.61846C11.4557 3.27518 12.2615 1.82729 13.4218 0.616132C14.9649 -0.985901 15.5708 0.8969 16.0452 2.17412C16.5996 3.80368 17.1825 5.88467 18.1942 7.44266C18.6285 8.14734 19.1258 8.79696 19.6973 9.40804C20.5775 10.3715 21.7777 11.2578 22.8237 12.0175C23.5838 12.6176 25.0927 13.5425 24.9955 14.3132V14.3187ZM16.3195 13.1076C16.3595 12.7222 16.0737 12.3534 15.8108 12.0175C15.325 11.4395 14.7992 10.8339 14.4334 10.1678C14.0105 9.4686 13.839 8.80246 13.3418 8.25744C12.9645 7.86106 12.4959 8.19138 12.1758 8.47765C11.6671 8.94009 11.0156 9.65578 10.3754 10.0962C10.0897 10.3054 9.78104 10.4981 9.47812 10.6743C9.00374 10.9715 8.21501 11.3184 8.10641 11.8524C8.03211 12.3919 8.64938 12.9534 8.99802 13.3828C9.30094 13.7242 9.58671 14.0875 9.83247 14.4729C10.2097 15.0289 10.5298 15.7942 10.8155 16.2841C11.0784 16.7466 11.4214 17.154 11.9929 16.7521C12.5816 16.3392 13.1017 15.684 13.6847 15.2271C13.879 15.0675 14.0848 14.9133 14.2962 14.7702C14.9192 14.2912 16.2166 13.7957 16.3195 13.1076Z" fill="url(#paint0_linear_1_24)"/>
<path d="M38.936 20.78C37.7973 20.78 36.8733 20.5373 36.164 20.052C35.4733 19.5667 34.9693 18.8853 34.652 18.008C34.3347 17.1307 34.176 16.1133 34.176 14.956C34.176 13.7427 34.3347 12.6973 34.652 11.82C34.988 10.924 35.5013 10.2333 36.192 9.748C36.9013 9.244 37.816 8.992 38.936 8.992C39.664 8.992 40.2707 9.11333 40.756 9.356C41.26 9.58 41.652 9.85067 41.932 10.168C42.2307 10.4853 42.4453 10.7747 42.576 11.036C42.7067 11.2973 42.7813 11.456 42.8 11.512H42.856V4.736H45.796V20.5H43.332L42.856 18.456H42.8C42.7813 18.4933 42.6973 18.6333 42.548 18.876C42.4173 19.1187 42.1933 19.3893 41.876 19.688C41.5773 19.9867 41.1853 20.248 40.7 20.472C40.2147 20.6773 39.6267 20.78 38.936 20.78ZM39.86 18.372C40.5693 18.372 41.1387 18.2227 41.568 17.924C42.016 17.6253 42.3333 17.224 42.52 16.72C42.7253 16.1973 42.828 15.6 42.828 14.928C42.828 14.2747 42.7347 13.696 42.548 13.192C42.3613 12.6693 42.0533 12.268 41.624 11.988C41.2133 11.6893 40.6533 11.54 39.944 11.54C39.1787 11.54 38.572 11.6987 38.124 12.016C37.6947 12.3333 37.396 12.7533 37.228 13.276C37.06 13.7987 36.976 14.3493 36.976 14.928C36.976 15.5067 37.0507 16.0667 37.2 16.608C37.368 17.1307 37.6573 17.56 38.068 17.896C38.4973 18.2133 39.0947 18.372 39.86 18.372ZM52.9887 20.78C51.6634 20.78 50.5807 20.5 49.7407 19.94C48.9194 19.3613 48.3034 18.624 47.8927 17.728C47.5007 16.832 47.2954 15.8987 47.2767 14.928C47.2581 13.7707 47.4727 12.744 47.9207 11.848C48.3874 10.9333 49.0407 10.224 49.8807 9.72C50.7394 9.19733 51.7474 8.936 52.9047 8.936C53.9314 8.936 54.8554 9.16 55.6767 9.608C56.4981 10.056 57.1421 10.6813 57.6087 11.484C58.0941 12.2867 58.3461 13.248 58.3647 14.368C58.3647 14.4053 58.3647 14.5173 58.3647 14.704C58.3647 14.872 58.3647 15.0027 58.3647 15.096H49.9927C49.9927 16.16 50.2541 16.9813 50.7767 17.56C51.3181 18.12 52.0367 18.4 52.9327 18.4C53.6421 18.4 54.2301 18.2227 54.6967 17.868C55.1821 17.5133 55.4714 17.0467 55.5647 16.468H58.3367C58.2621 17.2707 58.0007 17.9987 57.5527 18.652C57.1047 19.3053 56.4981 19.828 55.7327 20.22C54.9674 20.5933 54.0527 20.78 52.9887 20.78ZM50.0767 13.808H55.5087C55.4901 13.6773 55.4527 13.472 55.3967 13.192C55.3407 12.912 55.2194 12.6227 55.0327 12.324C54.8461 12.0253 54.5754 11.7733 54.2207 11.568C53.8661 11.3627 53.4087 11.26 52.8487 11.26C52.2887 11.26 51.8314 11.3533 51.4767 11.54C51.1221 11.7267 50.8514 11.96 50.6647 12.24C50.4781 12.52 50.3381 12.8 50.2447 13.08C50.1514 13.36 50.0954 13.6027 50.0767 13.808ZM63.2063 25.624V22.936H68.2463V18.456H68.1903C68.1716 18.4933 68.0876 18.6333 67.9383 18.876C67.789 19.1187 67.565 19.3893 67.2663 19.688C66.9863 19.9867 66.6036 20.248 66.1183 20.472C65.6516 20.6773 65.0636 20.78 64.3543 20.78C63.2343 20.78 62.3196 20.5373 61.6103 20.052C60.901 19.548 60.3783 18.8573 60.0423 17.98C59.725 17.1027 59.5663 16.0853 59.5663 14.928C59.5663 13.7147 59.7343 12.6693 60.0703 11.792C60.4063 10.896 60.929 10.2053 61.6383 9.72C62.3476 9.23467 63.253 8.992 64.3543 8.992C65.101 8.992 65.717 9.11333 66.2023 9.356C66.6876 9.58 67.0703 9.85067 67.3503 10.168C67.6303 10.4853 67.8263 10.7747 67.9383 11.036C68.069 11.2973 68.1436 11.456 68.1623 11.512H68.2183V8.992H71.1863V21.48C71.1863 22.5067 71.0463 23.3187 70.7663 23.916C70.505 24.532 70.1036 24.9707 69.5623 25.232C69.021 25.4933 68.321 25.624 67.4623 25.624H63.2063ZM65.2503 18.372C65.9596 18.372 66.529 18.2227 66.9583 17.924C67.3876 17.6253 67.705 17.224 67.9103 16.72C68.1156 16.1973 68.2183 15.6 68.2183 14.928C68.2183 14.2747 68.1156 13.696 67.9103 13.192C67.7236 12.6693 67.4156 12.268 66.9863 11.988C66.5756 11.6893 66.0156 11.54 65.3063 11.54C64.541 11.54 63.9343 11.6987 63.4863 12.016C63.057 12.3333 62.7583 12.7533 62.5903 13.276C62.4223 13.7987 62.3383 14.3493 62.3383 14.928C62.3383 15.5067 62.413 16.0667 62.5623 16.608C62.7303 17.1307 63.029 17.56 63.4583 17.896C63.8876 18.2133 64.485 18.372 65.2503 18.372ZM76.6634 20.78C75.618 20.78 74.7687 20.5373 74.1154 20.052C73.462 19.548 72.986 18.8573 72.6874 17.98C72.4074 17.084 72.2674 16.0573 72.2674 14.9C72.2674 13.724 72.4167 12.688 72.7154 11.792C73.014 10.896 73.4807 10.2053 74.1154 9.72C74.7687 9.216 75.618 8.964 76.6634 8.964C77.3354 8.964 77.8954 9.05733 78.3434 9.244C78.81 9.43067 79.1834 9.65467 79.4634 9.916C79.762 10.1773 79.986 10.4387 80.1354 10.7C80.2847 10.9427 80.3874 11.1387 80.4434 11.288H80.4994V8.992H83.4394V20.5H80.9754L80.4994 18.624H80.4434C80.406 18.7547 80.3034 18.9413 80.1354 19.184C79.9674 19.408 79.734 19.6507 79.4354 19.912C79.1554 20.1547 78.782 20.36 78.3154 20.528C77.8674 20.696 77.3167 20.78 76.6634 20.78ZM77.8394 18.372C78.53 18.372 79.0714 18.2227 79.4634 17.924C79.8554 17.6253 80.126 17.2147 80.2754 16.692C80.4247 16.1507 80.4994 15.5627 80.4994 14.928C80.4994 14.2373 80.4154 13.64 80.2474 13.136C80.098 12.6133 79.8274 12.212 79.4354 11.932C79.062 11.6333 78.53 11.484 77.8394 11.484C77.1114 11.484 76.542 11.6427 76.1314 11.96C75.7394 12.2773 75.4594 12.6973 75.2914 13.22C75.142 13.724 75.0674 14.2933 75.0674 14.928C75.0674 15.5627 75.142 16.1413 75.2914 16.664C75.4594 17.1867 75.7394 17.6067 76.1314 17.924C76.542 18.2227 77.1114 18.372 77.8394 18.372ZM88.8469 20.78C88.0442 20.78 87.3815 20.6493 86.8589 20.388C86.3549 20.1267 85.9535 19.7813 85.6549 19.352C85.3749 18.9227 85.1695 18.4467 85.0389 17.924C84.9082 17.4013 84.8242 16.8787 84.7869 16.356C84.7495 15.8147 84.7309 15.32 84.7309 14.872V8.992H87.5029V14.872C87.5029 15.4507 87.5589 16.0013 87.6709 16.524C87.7829 17.028 88.0162 17.448 88.3709 17.784C88.7442 18.1013 89.3042 18.26 90.0509 18.26C90.7789 18.26 91.3295 18.1013 91.7029 17.784C92.0762 17.448 92.3282 17.028 92.4589 16.524C92.5895 16.0013 92.6642 15.4787 92.6829 14.956V8.992H95.6229V20.5H93.1869L92.7109 18.316H92.6549C92.6175 18.428 92.5242 18.6147 92.3749 18.876C92.2255 19.1373 92.0015 19.4173 91.7029 19.716C91.4229 20.0147 91.0495 20.2667 90.5829 20.472C90.1162 20.6773 89.5375 20.78 88.8469 20.78ZM102.117 20.78C101.725 20.78 101.296 20.724 100.829 20.612C100.362 20.5187 99.8958 20.3693 99.4291 20.164C98.9625 19.94 98.5331 19.66 98.1411 19.324C97.7678 18.988 97.4691 18.596 97.2451 18.148C97.0211 17.7 96.9091 17.1773 96.9091 16.58H99.5411C99.5411 16.5987 99.5505 16.72 99.5691 16.944C99.6065 17.168 99.6998 17.42 99.8491 17.7C99.9985 17.9613 100.241 18.1947 100.577 18.4C100.913 18.6053 101.398 18.708 102.033 18.708C102.537 18.708 102.948 18.6427 103.265 18.512C103.582 18.3813 103.816 18.2227 103.965 18.036C104.133 17.8307 104.217 17.6067 104.217 17.364C104.217 16.9533 104.04 16.636 103.685 16.412C103.349 16.1693 102.91 15.9733 102.369 15.824C101.828 15.6747 101.249 15.5253 100.633 15.376C100.036 15.208 99.4665 14.9933 98.9251 14.732C98.4025 14.4707 97.9731 14.116 97.6371 13.668C97.3011 13.2013 97.1331 12.604 97.1331 11.876C97.1331 10.7933 97.5625 9.98133 98.4211 9.44C99.2798 8.89867 100.372 8.628 101.697 8.628C102.406 8.628 103.069 8.712 103.685 8.88C104.32 9.02933 104.88 9.28133 105.365 9.636C105.85 9.972 106.233 10.4107 106.513 10.952C106.812 11.4747 106.961 12.1187 106.961 12.884H104.329C104.348 12.4547 104.273 12.1093 104.105 11.848C103.956 11.568 103.75 11.3533 103.489 11.204C103.228 11.0547 102.948 10.952 102.649 10.896C102.35 10.84 102.061 10.812 101.781 10.812C101.109 10.812 100.596 10.9333 100.241 11.176C99.9051 11.4 99.7371 11.6987 99.7371 12.072C99.7371 12.5013 99.9051 12.8373 100.241 13.08C100.596 13.304 101.044 13.4907 101.585 13.64C102.145 13.7893 102.733 13.948 103.349 14.116C103.965 14.2653 104.544 14.4707 105.085 14.732C105.626 14.9933 106.065 15.348 106.401 15.796C106.756 16.2253 106.933 16.804 106.933 17.532C106.933 18.26 106.728 18.8667 106.317 19.352C105.925 19.8187 105.365 20.1733 104.637 20.416C103.928 20.6587 103.088 20.78 102.117 20.78Z" fill="#272727"/>
<defs>
<linearGradient id="paint0_linear_1_24" x1="7.81399e-07" y1="4.53483" x2="25" y2="20.4652" gradientUnits="userSpaceOnUse">
<stop stop-color="#2E47F9"/>
<stop offset="1" stop-color="#EF75CF"/>
</linearGradient>
</defs>
</svg>
