<svg width="165" height="62" viewBox="0 0 165 62" fill="none" xmlns="http://www.w3.org/2000/svg">
<g filter="url(#filter0_d_1_694)">
<rect x="10" y="6" width="145" height="42" rx="20" fill="#001FFE" fill-opacity="0.1" shape-rendering="crispEdges"/>
<path d="M31 28.5V30.75M31 28.5C29.1858 28.5 27.6725 27.2117 27.325 25.5M31 28.5C32.8142 28.5 34.3275 27.2117 34.675 25.5M34.75 21.75H36.8125C36.9867 21.75 37.0739 21.75 37.1463 21.7644C37.4438 21.8236 37.6764 22.0562 37.7356 22.3537C37.75 22.4261 37.75 22.5133 37.75 22.6875C37.75 23.2102 37.75 23.4716 37.7068 23.689C37.5292 24.5815 36.8315 25.2792 35.939 25.4568C35.7216 25.5 35.4602 25.5 34.9375 25.5H34.75H34.675M27.25 21.75H25.1875C25.0133 21.75 24.9261 21.75 24.8537 21.7644C24.5562 21.8236 24.3236 22.0562 24.2644 22.3537C24.25 22.4261 24.25 22.5133 24.25 22.6875C24.25 23.2102 24.25 23.4716 24.2932 23.689C24.4708 24.5815 25.1685 25.2792 26.061 25.4568C26.2784 25.5 26.5398 25.5 27.0625 25.5H27.25H27.325M31 30.75C31.6975 30.75 32.0462 30.75 32.3323 30.8267C33.1088 31.0347 33.7153 31.6412 33.9233 32.4177C34 32.7038 34 33.0525 34 33.75H28C28 33.0525 28 32.7038 28.0767 32.4177C28.2847 31.6412 28.8912 31.0347 29.6677 30.8267C29.9538 30.75 30.3025 30.75 31 30.75ZM27.325 25.5C27.2758 25.2577 27.25 25.0068 27.25 24.75V21.4286C27.25 21.0287 27.25 20.8288 27.3243 20.6746C27.398 20.5215 27.5215 20.398 27.6746 20.3243C27.8288 20.25 28.0287 20.25 28.4286 20.25H33.5714C33.9713 20.25 34.1712 20.25 34.3254 20.3243C34.4785 20.398 34.602 20.5215 34.6757 20.6746C34.75 20.8288 34.75 21.0287 34.75 21.4286V24.75C34.75 25.0068 34.7242 25.2577 34.675 25.5" stroke="#3254FF" stroke-width="2" stroke-linecap="round" stroke-linejoin="round"/>
<path d="M47.3815 32.5V21.24H50.9415L53.5815 31.62H53.6215L56.2415 21.24H59.7815V32.5H57.6615L57.8015 22.16H57.7815L55.0815 32.5H52.0815L49.4215 22.16H49.3815L49.5015 32.5H47.3815ZM65.109 32.7C64.2023 32.7 63.4357 32.52 62.809 32.16C62.1957 31.8 61.7357 31.3067 61.429 30.68C61.1223 30.04 60.969 29.3133 60.969 28.5C60.969 27.6733 61.1223 26.9467 61.429 26.32C61.7357 25.68 62.1957 25.18 62.809 24.82C63.4357 24.46 64.209 24.28 65.129 24.28C66.4757 24.28 67.4957 24.6667 68.189 25.44C68.8957 26.2133 69.249 27.2333 69.249 28.5C69.249 29.2867 69.1023 30 68.809 30.64C68.5157 31.28 68.0623 31.7867 67.449 32.16C66.8357 32.52 66.0557 32.7 65.109 32.7ZM65.109 30.98C65.709 30.98 66.1623 30.8533 66.469 30.6C66.789 30.3467 67.0023 30.0267 67.109 29.64C67.2157 29.24 67.269 28.84 67.269 28.44C67.269 28.0133 67.2157 27.6067 67.109 27.22C67.0023 26.8333 66.789 26.5133 66.469 26.26C66.1623 25.9933 65.709 25.86 65.109 25.86C64.5223 25.86 64.069 25.9933 63.749 26.26C63.4423 26.5133 63.229 26.8333 63.109 27.22C63.0023 27.6067 62.949 28.0133 62.949 28.44C62.949 28.84 63.0023 29.24 63.109 29.64C63.229 30.0267 63.4423 30.3467 63.749 30.6C64.069 30.8533 64.5223 30.98 65.109 30.98ZM73.8026 32.7C73.5226 32.7 73.2159 32.66 72.8826 32.58C72.5492 32.5133 72.2159 32.4067 71.8826 32.26C71.5492 32.1 71.2426 31.9 70.9626 31.66C70.6959 31.42 70.4826 31.14 70.3226 30.82C70.1626 30.5 70.0826 30.1267 70.0826 29.7H71.9626C71.9626 29.7133 71.9692 29.8 71.9826 29.96C72.0092 30.12 72.0759 30.3 72.1826 30.5C72.2892 30.6867 72.4626 30.8533 72.7026 31C72.9426 31.1467 73.2892 31.22 73.7426 31.22C74.1026 31.22 74.3959 31.1733 74.6226 31.08C74.8492 30.9867 75.0159 30.8733 75.1226 30.74C75.2426 30.5933 75.3026 30.4333 75.3026 30.26C75.3026 29.9667 75.1759 29.74 74.9226 29.58C74.6826 29.4067 74.3692 29.2667 73.9826 29.16C73.5959 29.0533 73.1826 28.9467 72.7426 28.84C72.3159 28.72 71.9092 28.5667 71.5226 28.38C71.1492 28.1933 70.8426 27.94 70.6026 27.62C70.3626 27.2867 70.2426 26.86 70.2426 26.34C70.2426 25.5667 70.5492 24.9867 71.1626 24.6C71.7759 24.2133 72.5559 24.02 73.5026 24.02C74.0092 24.02 74.4826 24.08 74.9226 24.2C75.3759 24.3067 75.7759 24.4867 76.1226 24.74C76.4692 24.98 76.7426 25.2933 76.9426 25.68C77.1559 26.0533 77.2626 26.5133 77.2626 27.06H75.3826C75.3959 26.7533 75.3426 26.5067 75.2226 26.32C75.1159 26.12 74.9692 25.9667 74.7826 25.86C74.5959 25.7533 74.3959 25.68 74.1826 25.64C73.9692 25.6 73.7626 25.58 73.5626 25.58C73.0826 25.58 72.7159 25.6667 72.4626 25.84C72.2226 26 72.1026 26.2133 72.1026 26.48C72.1026 26.7867 72.2226 27.0267 72.4626 27.2C72.7159 27.36 73.0359 27.4933 73.4226 27.6C73.8226 27.7067 74.2426 27.82 74.6826 27.94C75.1226 28.0467 75.5359 28.1933 75.9226 28.38C76.3092 28.5667 76.6226 28.82 76.8626 29.14C77.1159 29.4467 77.2426 29.86 77.2426 30.38C77.2426 30.9 77.0959 31.3333 76.8026 31.68C76.5226 32.0133 76.1226 32.2667 75.6026 32.44C75.0959 32.6133 74.4959 32.7 73.8026 32.7ZM80.8834 32.5C80.23 32.5 79.7367 32.34 79.4034 32.02C79.0834 31.7 78.9234 31.18 78.9234 30.46V25.5H80.8234V30.9H82.7434V32.5H80.8834ZM77.6834 25.72V24.28C77.9767 24.28 78.2167 24.26 78.4034 24.22C78.59 24.18 78.7367 24.0933 78.8434 23.96C78.9634 23.8267 79.05 23.62 79.1034 23.34C79.1567 23.06 79.1834 22.6733 79.1834 22.18H80.8234V24.28H82.7034V25.72H77.6834ZM92.9326 32.7C92.4259 32.7 91.9992 32.6267 91.6526 32.48C91.3192 32.32 91.0459 32.1333 90.8326 31.92C90.6326 31.7067 90.4792 31.5133 90.3726 31.34C90.2792 31.1667 90.2259 31.0667 90.2126 31.04H90.1726V36.16H88.0726V24.28H89.8526L90.1926 26.08H90.2326C90.2459 26.04 90.2926 25.9267 90.3726 25.74C90.4526 25.5533 90.5926 25.3467 90.7926 25.12C90.9926 24.8933 91.2659 24.7 91.6126 24.54C91.9592 24.3667 92.3926 24.28 92.9126 24.28C93.7392 24.28 94.3992 24.46 94.8926 24.82C95.3992 25.18 95.7659 25.68 95.9926 26.32C96.2326 26.96 96.3526 27.7 96.3526 28.54C96.3526 29.3933 96.2326 30.1333 95.9926 30.76C95.7526 31.3733 95.3792 31.8533 94.8726 32.2C94.3792 32.5333 93.7326 32.7 92.9326 32.7ZM92.3126 30.98C92.8726 30.98 93.2992 30.8667 93.5926 30.64C93.8992 30.4 94.1059 30.0933 94.2126 29.72C94.3326 29.3333 94.3926 28.9333 94.3926 28.52C94.3926 28.1067 94.3326 27.7133 94.2126 27.34C94.0926 26.9667 93.8726 26.6667 93.5526 26.44C93.2459 26.2133 92.8192 26.1 92.2726 26.1C91.7792 26.1 91.3792 26.2067 91.0726 26.42C90.7659 26.62 90.5392 26.9067 90.3926 27.28C90.2592 27.64 90.1926 28.0533 90.1926 28.52C90.1926 29 90.2659 29.4267 90.4126 29.8C90.5592 30.16 90.7859 30.4467 91.0926 30.66C91.4126 30.8733 91.8192 30.98 92.3126 30.98ZM101.136 32.7C100.23 32.7 99.463 32.52 98.8363 32.16C98.223 31.8 97.763 31.3067 97.4563 30.68C97.1497 30.04 96.9963 29.3133 96.9963 28.5C96.9963 27.6733 97.1497 26.9467 97.4563 26.32C97.763 25.68 98.223 25.18 98.8363 24.82C99.463 24.46 100.236 24.28 101.156 24.28C102.503 24.28 103.523 24.6667 104.216 25.44C104.923 26.2133 105.276 27.2333 105.276 28.5C105.276 29.2867 105.13 30 104.836 30.64C104.543 31.28 104.09 31.7867 103.476 32.16C102.863 32.52 102.083 32.7 101.136 32.7ZM101.136 30.98C101.736 30.98 102.19 30.8533 102.496 30.6C102.816 30.3467 103.03 30.0267 103.136 29.64C103.243 29.24 103.296 28.84 103.296 28.44C103.296 28.0133 103.243 27.6067 103.136 27.22C103.03 26.8333 102.816 26.5133 102.496 26.26C102.19 25.9933 101.736 25.86 101.136 25.86C100.55 25.86 100.096 25.9933 99.7763 26.26C99.4697 26.5133 99.2563 26.8333 99.1363 27.22C99.0297 27.6067 98.9763 28.0133 98.9763 28.44C98.9763 28.84 99.0297 29.24 99.1363 29.64C99.2563 30.0267 99.4697 30.3467 99.7763 30.6C100.096 30.8533 100.55 30.98 101.136 30.98ZM111.41 32.7C110.903 32.7 110.477 32.6267 110.13 32.48C109.797 32.32 109.523 32.1333 109.31 31.92C109.11 31.7067 108.957 31.5133 108.85 31.34C108.757 31.1667 108.703 31.0667 108.69 31.04H108.65V36.16H106.55V24.28H108.33L108.67 26.08H108.71C108.723 26.04 108.77 25.9267 108.85 25.74C108.93 25.5533 109.07 25.3467 109.27 25.12C109.47 24.8933 109.743 24.7 110.09 24.54C110.437 24.3667 110.87 24.28 111.39 24.28C112.217 24.28 112.877 24.46 113.37 24.82C113.877 25.18 114.243 25.68 114.47 26.32C114.71 26.96 114.83 27.7 114.83 28.54C114.83 29.3933 114.71 30.1333 114.47 30.76C114.23 31.3733 113.857 31.8533 113.35 32.2C112.857 32.5333 112.21 32.7 111.41 32.7ZM110.79 30.98C111.35 30.98 111.777 30.8667 112.07 30.64C112.377 30.4 112.583 30.0933 112.69 29.72C112.81 29.3333 112.87 28.9333 112.87 28.52C112.87 28.1067 112.81 27.7133 112.69 27.34C112.57 26.9667 112.35 26.6667 112.03 26.44C111.723 26.2133 111.297 26.1 110.75 26.1C110.257 26.1 109.857 26.2067 109.55 26.42C109.243 26.62 109.017 26.9067 108.87 27.28C108.737 27.64 108.67 28.0533 108.67 28.52C108.67 29 108.743 29.4267 108.89 29.8C109.037 30.16 109.263 30.4467 109.57 30.66C109.89 30.8733 110.297 30.98 110.79 30.98ZM118.614 32.7C118.04 32.7 117.567 32.6067 117.194 32.42C116.834 32.2333 116.547 31.9867 116.334 31.68C116.134 31.3733 115.987 31.0333 115.894 30.66C115.8 30.2867 115.74 29.9133 115.714 29.54C115.687 29.1533 115.674 28.8 115.674 28.48V24.28H117.654V28.48C117.654 28.8933 117.694 29.2867 117.774 29.66C117.854 30.02 118.02 30.32 118.274 30.56C118.54 30.7867 118.94 30.9 119.474 30.9C119.994 30.9 120.387 30.7867 120.654 30.56C120.92 30.32 121.1 30.02 121.194 29.66C121.287 29.2867 121.34 28.9133 121.354 28.54V24.28H123.454V32.5H121.714L121.374 30.94H121.334C121.307 31.02 121.24 31.1533 121.134 31.34C121.027 31.5267 120.867 31.7267 120.654 31.94C120.454 32.1533 120.187 32.3333 119.854 32.48C119.52 32.6267 119.107 32.7 118.614 32.7ZM124.792 32.5V21.24H126.792V32.5H124.792ZM130.918 32.7C130.172 32.7 129.565 32.5267 129.098 32.18C128.632 31.82 128.292 31.3267 128.078 30.7C127.878 30.06 127.778 29.3267 127.778 28.5C127.778 27.66 127.885 26.92 128.098 26.28C128.312 25.64 128.645 25.1467 129.098 24.8C129.565 24.44 130.172 24.26 130.918 24.26C131.398 24.26 131.798 24.3267 132.118 24.46C132.452 24.5933 132.718 24.7533 132.918 24.94C133.132 25.1267 133.292 25.3133 133.398 25.5C133.505 25.6733 133.578 25.8133 133.618 25.92H133.658V24.28H135.758V32.5H133.998L133.658 31.16H133.618C133.592 31.2533 133.518 31.3867 133.398 31.56C133.278 31.72 133.112 31.8933 132.898 32.08C132.698 32.2533 132.432 32.4 132.098 32.52C131.778 32.64 131.385 32.7 130.918 32.7ZM131.758 30.98C132.252 30.98 132.638 30.8733 132.918 30.66C133.198 30.4467 133.392 30.1533 133.498 29.78C133.605 29.3933 133.658 28.9733 133.658 28.52C133.658 28.0267 133.598 27.6 133.478 27.24C133.372 26.8667 133.178 26.58 132.898 26.38C132.632 26.1667 132.252 26.06 131.758 26.06C131.238 26.06 130.832 26.1733 130.538 26.4C130.258 26.6267 130.058 26.9267 129.938 27.3C129.832 27.66 129.778 28.0667 129.778 28.52C129.778 28.9733 129.832 29.3867 129.938 29.76C130.058 30.1333 130.258 30.4333 130.538 30.66C130.832 30.8733 131.238 30.98 131.758 30.98ZM136.861 32.5V24.28H138.761L138.921 26.68L138.901 28.44V32.5H136.861ZM138.901 28.96L138.841 27.14C138.841 26.86 138.894 26.56 139.001 26.24C139.107 25.9067 139.281 25.5933 139.521 25.3C139.774 25.0067 140.101 24.7667 140.501 24.58C140.901 24.38 141.394 24.28 141.981 24.28H142.281V26.56H141.981C141.407 26.56 140.921 26.6067 140.521 26.7C140.121 26.78 139.801 26.9133 139.561 27.1C139.334 27.2867 139.167 27.5333 139.061 27.84C138.954 28.1467 138.901 28.52 138.901 28.96Z" fill="#3254FF"/>
</g>
<defs>
<filter id="filter0_d_1_694" x="0" y="0" width="165" height="62" filterUnits="userSpaceOnUse" color-interpolation-filters="sRGB">
<feFlood flood-opacity="0" result="BackgroundImageFix"/>
<feColorMatrix in="SourceAlpha" type="matrix" values="0 0 0 0 0 0 0 0 0 0 0 0 0 0 0 0 0 0 127 0" result="hardAlpha"/>
<feOffset dy="4"/>
<feGaussianBlur stdDeviation="5"/>
<feComposite in2="hardAlpha" operator="out"/>
<feColorMatrix type="matrix" values="0 0 0 0 0.196078 0 0 0 0 0.329412 0 0 0 0 1 0 0 0 0.25 0"/>
<feBlend mode="normal" in2="BackgroundImageFix" result="effect1_dropShadow_1_694"/>
<feBlend mode="normal" in="BackgroundImageFix" in2="effect1_dropShadow_1_694" result="BackgroundImageFix"/>
<feBlend mode="normal" in="SourceGraphic" in2="BackgroundImageFix" result="shape"/>
</filter>
</defs>
</svg>
