<svg width="16" height="16" viewBox="0 0 16 16" fill="none" xmlns="http://www.w3.org/2000/svg">
<path d="M1.776 7.96694C1.88857 7.90204 2.02764 7.82921 2.19054 7.7471C3.49242 7.09555 4.94397 6.79758 6.27499 7.00285C7.57158 7.20414 8.74632 7.86894 9.56347 9.13099C9.73565 9.0714 9.90914 9.0224 10.084 8.98399C10.4654 8.90056 10.8627 8.86746 11.264 8.88467C11.6653 8.90189 12.0586 8.97075 12.4334 9.08729C12.8136 9.20648 13.1751 9.37201 13.5102 9.57993C13.8479 9.79049 14.1552 10.0448 14.4267 10.3335C14.6995 10.6235 14.9352 10.9479 15.122 11.2936C15.3087 11.6392 15.4518 12.0127 15.5471 12.402C15.6398 12.7834 15.6835 13.1794 15.6769 13.5767L14.3287 13.5555C14.334 13.2734 14.3022 12.9913 14.236 12.7185C14.1711 12.4523 14.0691 12.1901 13.9327 11.9372C13.7963 11.6869 13.632 11.4578 13.4426 11.2565C13.2519 11.0539 13.0347 10.8751 12.795 10.7254C12.554 10.5745 12.297 10.4566 12.0335 10.3758C11.762 10.2924 11.4852 10.2434 11.2084 10.2315C10.9276 10.2196 10.6455 10.2447 10.3687 10.3043C10.0919 10.3652 9.8257 10.4593 9.57937 10.5851L8.97412 10.895L8.6695 10.2871L8.55031 10.0686C7.95698 9.02902 7.06168 8.48871 6.06838 8.33509C5.02211 8.17353 3.85663 8.42117 2.79182 8.95221C2.69911 8.99856 2.58389 9.0608 2.44615 9.13894L1.776 7.96694Z" fill="url(#paint0_linear_1_355)"/>
<path d="M2.7574 11.4062C2.85011 11.381 2.95341 11.3492 3.06599 11.3135C4.72281 10.7785 6.02072 9.7018 6.79417 8.36956C7.55968 7.04791 7.80999 5.47067 7.38221 3.91727L7.30672 3.6683C7.11335 3.0578 6.99151 2.43273 6.99151 1.89639C6.99151 1.51102 7.05508 1.15346 7.19679 0.852847C7.37161 0.479395 7.65371 0.20659 8.06427 0.075485C8.22055 0.026486 8.38478 0 8.55695 0C9.79924 0 10.7713 0.831658 11.472 1.95334C12.3487 3.35709 12.8136 5.27335 12.8136 6.40562C12.8136 8.9549 11.9607 11.3121 10.476 13.0099C9.04168 14.6507 7.02594 15.6757 4.62348 15.6757C2.61039 15.6757 0 15.6757 0 13.5674C0.0026488 12.1226 0.788018 11.9187 2.19718 11.5545L2.7574 11.4062ZM3.47787 12.598C3.3706 12.6325 3.25008 12.6682 3.11499 12.7053C2.915 12.7623 2.71767 12.8126 2.53623 12.8602C1.77867 13.0562 1.35619 13.1648 1.35619 13.5674C1.35619 14.3223 3.20108 14.3223 4.62613 14.3223C6.61405 14.3223 8.27882 13.476 9.46284 12.1213C10.7329 10.6685 11.4614 8.62912 11.4614 6.40562C11.4614 5.4614 11.068 3.85503 10.325 2.66713C9.85354 1.91228 9.25093 1.35343 8.55695 1.35343C8.51324 1.35343 8.48411 1.35608 8.46954 1.36138C8.451 1.36667 8.43246 1.39051 8.41656 1.42494C8.36624 1.53221 8.34372 1.69642 8.34372 1.89772C8.34372 2.30163 8.43908 2.78367 8.58873 3.25645C8.61787 3.3465 8.64833 3.44715 8.68012 3.56368C9.20723 5.47994 8.90129 7.42268 7.95965 9.04627C7.02727 10.6579 5.4658 11.9558 3.47787 12.598Z" fill="url(#paint1_linear_1_355)"/>
<defs>
<linearGradient id="paint0_linear_1_355" x1="8.72678" y1="6.93872" x2="8.72678" y2="13.5767" gradientUnits="userSpaceOnUse">
<stop stop-color="#492BDA"/>
<stop offset="1" stop-color="#271774"/>
</linearGradient>
<linearGradient id="paint1_linear_1_355" x1="6.40679" y1="0" x2="6.40679" y2="15.6757" gradientUnits="userSpaceOnUse">
<stop stop-color="#492BDA"/>
<stop offset="1" stop-color="#271774"/>
</linearGradient>
</defs>
</svg>
