<svg width="16" height="16" viewBox="0 0 16 16" fill="none" xmlns="http://www.w3.org/2000/svg">
<path fill-rule="evenodd" clip-rule="evenodd" d="M5.39043 0.305548C6.03261 0.0415371 6.73169 -0.0537076 7.42109 0.0288813C8.30976 0.130881 9.10176 0.508881 9.79709 1.16221C9.80643 1.17113 9.81784 1.17758 9.8303 1.18095C9.84276 1.18433 9.85587 1.18454 9.86843 1.18155C10.8078 0.950881 11.7098 1.03221 12.5764 1.42555L12.6171 1.44488L12.7204 1.49621C13.6251 1.96488 14.2738 2.67555 14.6658 3.62755C14.8511 4.08088 14.9444 4.55288 14.9464 5.04555C14.9596 5.4119 14.9191 5.77821 14.8264 6.13288C14.8218 6.15085 14.8218 6.1697 14.8265 6.18766C14.8311 6.20563 14.8403 6.2221 14.8531 6.23555C15.3771 6.76712 15.7414 7.43513 15.9044 8.16355C16.1618 9.43088 15.8991 10.5729 15.1164 11.5902L14.9958 11.7369C14.4774 12.3299 13.7971 12.7586 13.0384 12.9702C13.022 12.9751 13.007 12.9839 12.9947 12.9959C12.9824 13.0079 12.9732 13.0226 12.9678 13.0389C12.7978 13.5295 12.6264 13.9482 12.3091 14.3669C11.5098 15.4215 10.3344 16.0082 9.01043 16.0002C7.95509 15.9955 7.01976 15.6095 6.20376 14.8429C6.19144 14.8315 6.1763 14.8235 6.15989 14.8199C6.14349 14.8163 6.12642 14.8171 6.11043 14.8222C5.76509 14.9335 5.41709 14.9495 5.04043 14.9455C4.43995 14.9406 3.84851 14.7988 3.31109 14.5309C2.74834 14.2518 2.25847 13.8452 1.88043 13.3435C1.74509 13.1635 1.61109 12.9955 1.51243 12.7962C1.3775 12.5214 1.26729 12.2352 1.18309 11.9409C1.00571 11.2718 1.00181 10.5686 1.17176 9.89755C1.17709 9.88168 1.17869 9.8648 1.17643 9.84821C1.17331 9.83194 1.16487 9.81716 1.15243 9.80621C0.741411 9.39059 0.427263 8.88932 0.232427 8.33821C0.103277 7.99871 0.028361 7.64101 0.0104271 7.27821C-0.0217168 6.80125 0.0205669 6.32218 0.13576 5.85821C0.43576 4.86821 1.00843 4.09155 1.85443 3.52888C2.04243 3.40355 2.22043 3.30621 2.38776 3.23621C2.57542 3.15827 2.76727 3.09083 2.96243 3.03421C2.97619 3.0302 2.98872 3.02278 2.99885 3.01264C3.00899 3.0025 3.01641 2.98998 3.02043 2.97621C3.16582 2.45238 3.41623 1.96359 3.75643 1.53955C4.20976 0.976214 4.75443 0.564881 5.39043 0.305548ZM6.03376 5.40355C5.26443 4.85688 4.21376 5.12821 3.82643 5.98688C3.62576 6.43088 3.58643 6.89888 3.70776 7.39088L3.80443 7.78155L3.97776 8.41488C4.04776 8.77021 4.18443 9.09488 4.38576 9.38955L4.40576 9.41821C4.51243 9.54421 4.62909 9.65955 4.75509 9.76355C5.67909 10.5229 6.93843 10.0162 7.18976 8.88155L7.22309 8.73955L7.23109 8.68621C7.27109 8.41955 7.25909 8.15821 7.19576 7.90288C7.08433 7.45049 6.96297 7.0006 6.83176 6.55355C6.68709 6.06155 6.42109 5.67821 6.03376 5.40355ZM10.7698 4.30621C10.1951 3.77155 9.30909 3.75221 8.73843 4.28888C8.51576 4.49821 8.36109 4.77955 8.27376 5.13221C8.18694 5.49036 8.18694 5.86407 8.27376 6.22221L8.28309 6.25821L8.31976 6.37821C8.40443 6.65821 8.48309 6.93421 8.55509 7.20555C8.62976 7.48755 8.68976 7.67621 8.73509 7.77221C9.11776 8.57621 9.94843 9.15488 10.8531 8.78688C11.6938 8.44421 11.9471 7.44688 11.7564 6.64021C11.7278 6.51821 11.6964 6.39688 11.6631 6.27621C11.5763 5.92446 11.4811 5.5748 11.3778 5.22755C11.2698 4.88888 11.0671 4.58221 10.7698 4.30621Z" fill="#492BDA"/>
</svg>
