<svg width="28" height="28" viewBox="0 0 28 28" fill="none" xmlns="http://www.w3.org/2000/svg">
<path d="M3.63136 10.5002H24.3688M8.2235 3.55909L14.0001 10.5003L19.7864 3.56395M24.1338 9.95075L20.1105 3.91581C20.0092 3.76385 19.9585 3.68788 19.8916 3.63288C19.8324 3.58418 19.7641 3.54765 19.6907 3.52537C19.6078 3.50019 19.5165 3.50019 19.3339 3.50019H8.66624C8.48361 3.50019 8.3923 3.50019 8.30941 3.52537C8.23604 3.54765 8.16777 3.58418 8.10853 3.63288C8.04161 3.68788 7.99096 3.76385 7.88965 3.91581L3.86636 9.95075C3.73448 10.1486 3.66854 10.2475 3.6449 10.3539C3.62403 10.4479 3.62674 10.5456 3.6528 10.6382C3.68229 10.7432 3.75362 10.8383 3.89627 11.0285L13.2534 23.5046C13.5067 23.8424 13.6334 24.0112 13.7886 24.0716C13.9246 24.1245 14.0755 24.1245 14.2115 24.0716C14.3668 24.0112 14.4934 23.8424 14.7467 23.5046L24.1039 11.0285C24.2465 10.8383 24.3178 10.7432 24.3473 10.6382C24.3734 10.5456 24.3761 10.4479 24.3552 10.3539C24.3316 10.2475 24.2656 10.1486 24.1338 9.95075Z" stroke="#492BDA" stroke-width="3" stroke-linecap="round" stroke-linejoin="round"/>
</svg>
