<svg width="25" height="25" viewBox="0 0 25 25" fill="none" xmlns="http://www.w3.org/2000/svg">
<path d="M24.9955 14.3187C24.9384 14.638 24.5783 14.9078 23.9553 15.1721C23.4867 15.3758 22.8694 15.5739 22.1721 15.7941C19.9545 16.4548 17.9255 17.2751 16.1652 18.811C14.6734 20.0332 13.3875 21.894 12.3358 23.3143C11.9643 23.8043 11.5757 24.3108 11.107 24.6962C10.5583 25.1531 10.0611 25.1036 9.67816 24.487C9.51813 24.2392 9.38667 23.9585 9.26665 23.6667C8.68367 22.1968 8.32932 20.6168 7.60917 18.9982C6.74614 17.0273 5.4716 15.2326 3.7684 13.8453C3.23115 13.3939 2.67103 12.981 2.16236 12.6011C1.43079 12.0175 -0.0609433 11.1037 0.00192648 10.3935C0.0419345 10.0852 0.396291 9.83195 1.01356 9.5787C1.48222 9.38602 2.10521 9.19334 2.80821 8.97863C3.45405 8.78044 4.17419 8.56023 4.87148 8.30699C6.99762 7.56378 8.82084 6.28105 10.2611 4.61846C11.4557 3.27518 12.2615 1.82729 13.4218 0.616132C14.9649 -0.985901 15.5708 0.8969 16.0452 2.17412C16.5996 3.80368 17.1825 5.88467 18.1942 7.44266C18.6285 8.14734 19.1258 8.79696 19.6973 9.40804C20.5775 10.3715 21.7777 11.2578 22.8237 12.0175C23.5838 12.6176 25.0927 13.5425 24.9955 14.3132V14.3187ZM16.3195 13.1076C16.3595 12.7222 16.0737 12.3534 15.8108 12.0175C15.325 11.4395 14.7992 10.8339 14.4334 10.1678C14.0105 9.4686 13.839 8.80246 13.3418 8.25744C12.9645 7.86106 12.4959 8.19138 12.1758 8.47765C11.6671 8.94009 11.0156 9.65578 10.3754 10.0962C10.0897 10.3054 9.78104 10.4981 9.47812 10.6743C9.00374 10.9715 8.21501 11.3184 8.10641 11.8524C8.03211 12.3919 8.64938 12.9534 8.99802 13.3828C9.30094 13.7242 9.58671 14.0875 9.83247 14.4729C10.2097 15.0289 10.5298 15.7942 10.8155 16.2841C11.0784 16.7466 11.4214 17.154 11.9929 16.7521C12.5816 16.3392 13.1017 15.684 13.6847 15.2271C13.879 15.0675 14.0848 14.9133 14.2962 14.7702C14.9192 14.2912 16.2166 13.7957 16.3195 13.1076Z" fill="url(#paint0_linear_1_25)"/>
<defs>
<linearGradient id="paint0_linear_1_25" x1="7.81399e-07" y1="4.53483" x2="25" y2="20.4652" gradientUnits="userSpaceOnUse">
<stop stop-color="#2E47F9"/>
<stop offset="1" stop-color="#EF75CF"/>
</linearGradient>
</defs>
</svg>
