<svg width="14" height="14" viewBox="0 0 14 14" fill="none" xmlns="http://www.w3.org/2000/svg">
<path d="M11.0833 1.75V4.08333M9.91667 2.91667H12.25M11.0833 9.91667V12.25M9.91667 11.0833H12.25M5.83333 2.91667L4.97584 5.09087C4.86622 5.36881 4.81141 5.50778 4.72749 5.62496C4.6531 5.72883 4.56216 5.81977 4.45829 5.89416C4.34111 5.97808 4.20214 6.03289 3.92421 6.1425L1.75 7L3.92421 7.85749C4.20214 7.96711 4.34111 8.02192 4.45829 8.10584C4.56216 8.18023 4.6531 8.27117 4.72749 8.37504C4.81141 8.49222 4.86622 8.63119 4.97584 8.90913L5.83333 11.0833L6.69083 8.90913C6.80044 8.63119 6.85525 8.49222 6.93917 8.37504C7.01356 8.27117 7.10451 8.18023 7.20838 8.10584C7.32556 8.02192 7.46452 7.96711 7.74246 7.85749L9.91667 7L7.74246 6.1425C7.46452 6.03289 7.32556 5.97808 7.20838 5.89416C7.10451 5.81977 7.01356 5.72883 6.93917 5.62496C6.85525 5.50778 6.80044 5.36881 6.69083 5.09087L5.83333 2.91667Z" stroke="#3254FF" stroke-width="2" stroke-linecap="round" stroke-linejoin="round"/>
</svg>
